Coordinates
version=1
nRows=17
nColumns=24
inDegrees=yes

Units are S.I. units (second, meters, Newtons, ...)
Angles are in degrees.

endheader
time	pelvis_tilt	pelvis_list	pelvis_rotation	pelvis_tx	pelvis_ty	pelvis_tz	hip_flexion_r	hip_adduction_r	hip_rotation_r	knee_angle_r	ankle_angle_r	subtalar_angle_r	mtp_angle_r	hip_flexion_l	hip_adduction_l	hip_rotation_l	knee_angle_l	ankle_angle_l	subtalar_angle_l	mtp_angle_l	lumbar_extension	lumbar_bending	lumbar_rotation
      2.61000000	    -11.10327388	     -6.39815959	     -1.46164144	      0.10291834	      0.96012711	      0.03324321	     22.26160420	     11.88094871	      1.96340096	    -18.67975339	      6.11588595	      0.00000000	      0.00000000	     26.32354105	    -12.05491566	     -8.07092984	    -61.35746875	     -2.94648894	      0.00000000	      0.00000000	      7.99648333	      6.02902235	      0.37560138
      2.62000000	    -11.13554730	     -6.18127154	     -1.54352083	      0.10194754	      0.96061308	      0.03365741	     21.72032160	     11.73317514	      2.04995389	    -18.44319989	      6.30812016	      0.00000000	      0.00000000	     27.33842981	    -11.80868391	     -8.21759135	    -60.70857550	     -1.14046065	      0.00000000	      0.00000000	      8.04322543	      5.84644610	      0.47047560
      2.63000000	    -11.19202789	     -5.91365802	     -1.58437639	      0.10097613	      0.96106318	      0.03401001	     21.21019288	     11.53438331	      2.20428692	    -18.21807014	      6.53381301	      0.00000000	      0.00000000	     28.30302096	    -11.45428275	     -8.31639443	    -59.77431279	      0.49797947	      0.00000000	      0.00000000	      8.12595046	      5.58331230	      0.55643726
      2.64000000	    -11.27089912	     -5.60699798	     -1.61595201	      0.10001791	      0.96149703	      0.03426733	     20.71598741	     11.29704354	      2.41142799	    -17.99233761	      6.80551634	      0.00000000	      0.00000000	     29.21136478	    -11.00833585	     -8.36875123	    -58.56050681	      1.81801065	      0.00000000	      0.00000000	      8.24106187	      5.27576898	      0.63270616
      2.65000000	    -11.36293046	     -5.33642755	     -1.56761503	      0.09908431	      0.96194165	      0.03446188	     20.16424489	     11.08088874	      2.70433603	    -17.60974116	      7.04399856	      0.00000000	      0.00000000	     30.11140752	    -10.54893377	     -8.28292875	    -57.15862028	      2.74090527	      0.00000000	      0.00000000	      8.37448176	      4.97566766	      0.67776853
      2.66000000	    -11.46390629	     -4.93056442	     -1.60619841	      0.09795792	      0.96233461	      0.03447697	     19.73374922	     10.73674542	      2.99952725	    -17.44539616	      7.32442970	      0.00000000	      0.00000000	     30.89789615	     -9.89102719	     -8.18534411	    -55.51100903	      3.78545152	      0.00000000	      0.00000000	      8.46896004	      4.57740606	      0.77530825
      2.67000000	    -11.57950020	     -4.58749661	     -1.59870554	      0.09697803	      0.96272859	      0.03444189	     19.24752928	     10.44253198	      3.38079166	    -17.14480065	      7.61886928	      0.00000000	      0.00000000	     31.65315613	     -9.27286545	     -7.98706272	    -53.69779402	      4.47409110	      0.00000000	      0.00000000	      8.61415073	      4.23058615	      0.84976243
      2.68000000	    -11.67643173	     -4.26381024	     -1.61291376	      0.09590164	      0.96309588	      0.03445224	     18.80272640	     10.16993721	      3.71324369	    -16.96728480	      7.88489037	      0.00000000	      0.00000000	     32.32846030	     -8.66936451	     -7.72257814	    -51.72928687	      4.98018506	      0.00000000	      0.00000000	      8.69878821	      3.89061197	      0.99449085
      2.69000000	    -11.75197450	     -3.74234485	     -1.68189801	      0.09482779	      0.96350238	      0.03427923	     18.40163103	      9.68259888	      4.04536640	    -16.93052199	      8.30168495	      0.00000000	      0.00000000	     32.83564530	     -7.84625978	     -7.48860144	    -49.50416339	      5.31842057	      0.00000000	      0.00000000	      8.75901743	      3.36205623	      1.25082887
      2.70000000	    -11.87311628	     -3.47608379	     -1.67683115	      0.09391692	      0.96381103	      0.03416809	     17.90603070	      9.43403585	      4.40942507	    -16.58554735	      8.50532585	      0.00000000	      0.00000000	     33.40666382	     -7.27212529	     -7.04327973	    -47.28070598	      5.55034136	      0.00000000	      0.00000000	      8.89647078	      3.09364411	      1.37898015
      2.71000000	    -11.95260975	     -3.13878704	     -1.72286300	      0.09297113	      0.96415426	      0.03397534	     17.43115425	      9.10061210	      4.67119230	    -16.36344777	      8.72663812	      0.00000000	      0.00000000	     33.82143265	     -6.63277831	     -6.57768656	    -44.87397371	      5.59434514	      0.00000000	      0.00000000	      8.96846819	      2.76864908	      1.58106533
      2.72000000	    -12.01799131	     -2.83143173	     -1.77070893	      0.09207627	      0.96446465	      0.03379588	     16.93307784	      8.78678018	      4.90232641	    -16.11886316	      8.93982258	      0.00000000	      0.00000000	     34.15874339	     -6.04452218	     -6.05955195	    -42.37982252	      5.50120311	      0.00000000	      0.00000000	      9.02459196	      2.47418853	      1.79301401
      2.73000000	    -12.11186002	     -2.92467002	     -1.95431165	      0.09102118	      0.96450655	      0.03388469	     16.54880775	      8.93154480	      5.03895684	    -16.04230130	      9.10625913	      0.00000000	      0.00000000	     34.61389905	     -5.96999323	     -5.43781927	    -40.12339307	      5.55017091	      0.00000000	      0.00000000	      9.06183688	      2.66524622	      2.11294340
      2.74000000	    -12.20496516	     -2.40552200	     -1.90435233	      0.09041476	      0.96481816	      0.03351264	     15.93604796	      8.33381662	      5.27261824	    -15.48666660	      9.22123382	      0.00000000	      0.00000000	     34.74564000	     -5.14171369	     -4.82487738	    -37.26741604	      5.12185042	      0.00000000	      0.00000000	      9.20165891	      2.10704779	      2.20388479
      2.75000000	    -12.29497357	     -2.54017829	     -2.10436555	      0.08937542	      0.96470294	      0.03365429	     15.57111706	      8.51613778	      5.32540121	    -15.45049632	      9.39192967	      0.00000000	      0.00000000	     35.09232324	     -5.18127320	     -4.22361176	    -34.93221610	      5.09882539	      0.00000000	      0.00000000	      9.22220837	      2.33994593	      2.51516745
      2.76000000	    -12.30223178	     -2.08863952	     -2.08172222	      0.08882849	      0.96496578	      0.03337879	     14.90655940	      7.98666817	      5.42454899	    -14.97123253	      9.46093435	      0.00000000	      0.00000000	     35.00331689	     -4.52277438	     -3.63120904	    -31.94590754	      4.30666615	      0.00000000	      0.00000000	      9.24414912	      1.84926180	      2.61186067
      2.77000000	    -12.32267979	     -2.01064644	     -2.18010331	      0.08808080	      0.96491586	      0.03334752	     14.36852716	      7.89945362	      5.51134205	    -14.73889837	      9.59916241	      0.00000000	      0.00000000	     35.05142862	     -4.36238849	     -3.10791232	    -29.29297406	      3.84990509	      0.00000000	      0.00000000	      9.22141554	      1.81299139	      2.77790064
